<svg xmlns="http://www.w3.org/2000/svg" viewBox="0 0 18 18" fill="none">
  <g stroke="currentColor" stroke-linecap="round" stroke-linejoin="round" fill="none">
    <g stroke-width="1.25">
      <path d="M7.083 9.208a3.542 3.542 0 0 0 5.341.383l2.125-2.125a3.542 3.542 0 0 0-5.008-5.008L8.323 3.669"/>
      <path d="M9.917 7.792a3.542 3.542 0 0 0-5.341-.383L2.45 9.534a3.542 3.542 0 0 0 5.008 5.008l1.211-1.211"/>
    </g>
  </g>
  <path fill="currentColor" d="M16.907 14.5c0-.184-.017-.363-.057-.534l.621-.455a.22.22 0 0 0 .08-.253 3.539 3.539 0 0 0-.556-.958.223.223 0 0 0-.259-.062l-.704.31a2.595 2.595 0 0 0-.928-.537l-.087-.775a.218.218 0 0 0-.18-.192 3.852 3.852 0 0 0-.555-.044c-.188 0-.372.013-.551.044a.214.214 0 0 0-.18.192l-.087.77c-.35.114-.661.298-.928.538l-.704-.31a.228.228 0 0 0-.263.057 3.54 3.54 0 0 0-.555.958.22.22 0 0 0 .078.254l.622.455a2.783 2.783 0 0 0-.057.542c0 .184.017.363.057.534l-.622.455a.22.22 0 0 0-.078.254c.135.35.323.674.555.958.061.074.17.1.258.061l.705-.31c.267.24.582.424.927.538l.084.77c.008.096.083.18.179.192.368.062.743.064 1.111.005a.214.214 0 0 0 .18-.193l.087-.77c.35-.114.66-.297.928-.538l.704.31c.088.04.197.018.258-.056a3.54 3.54 0 0 0 .556-.959.22.22 0 0 0-.079-.253l-.621-.455c.04-.175.061-.359.061-.543Zm-2.625.875a.878.878 0 0 1-.875-.875c0-.481.394-.875.875-.875s.875.394.875.875a.878.878 0 0 1-.875.875Z"/>
</svg>
